<svg xmlns="http://www.w3.org/2000/svg" viewBox="0 0 32 32">
  <defs>
    <linearGradient id="g" x1="0" y1="0" x2="1" y2="1">
      <stop offset="0%" stop-color="#10b981"/>
      <stop offset="100%" stop-color="#8b5cf6"/>
    </linearGradient>
  </defs>
  <rect width="32" height="32" rx="9" fill="url(#g)"/>
  <path d="M9 4.5h9.5L25 11v15.5a1.5 1.5 0 0 1-1.5 1.5h-14A1.5 1.5 0 0 1 8 26.5v-20A1.5 1.5 0 0 1 9.5 5Z" fill="#fff" fill-opacity=".95"/>
  <path d="M18.5 4.5V10a1 1 0 0 0 1 1H25" stroke="#10b981" stroke-width="1.6" fill="none" opacity=".55"/>
  <rect x="11.3" y="15" width="8.8" height="1.9" rx=".95" fill="#8b5cf6" opacity=".65"/>
  <rect x="11.3" y="18.6" width="11.4" height="1.9" rx=".95" fill="#8b5cf6" opacity=".4"/>
  <path d="M11.3 24.5l2.8 2.8 5.7-6.1" stroke="#10b981" stroke-width="2.2" stroke-linecap="round" stroke-linejoin="round" fill="none"/>
</svg>
